<svg width="170" height="46" viewBox="0 0 170 46" fill="none" xmlns="http://www.w3.org/2000/svg">
  <path d="M17 10C11 10 6 14.8 6 20.8C6 27.4 11.3 32 17.9 32H27.2C27.2 26.2 32 21.5 37.8 21.5H39.4C39 15 33.5 10 27 10H17Z" fill="#F7941D"/>
  <path d="M29.4 35.8C35.8 35.8 41 30.8 41 24.5C41 22.8 40.6 21.1 39.9 19.8C39.1 24.7 34.8 28.4 29.6 28.4H17.4C13.6 28.4 10.2 27 7.6 24.8C7.8 31 12.9 35.8 19.2 35.8H29.4Z" fill="#F47A20"/>
  <text x="48" y="27" fill="#2A2A2A" font-family="Arial, Helvetica, sans-serif" font-size="18" font-weight="700">DigiSkills.pk</text>
  <rect x="49" y="30" width="88" height="3" rx="1.5" fill="#F7941D"/>
</svg>
