<svg width="240" height="72" viewBox="0 0 240 72" fill="none" xmlns="http://www.w3.org/2000/svg">
  <path d="M20 54L48 18H86L58 54H20Z" fill="url(#paint0_linear_1_1)"/>
  <path d="M70 54L98 18H136L108 54H70Z" fill="url(#paint1_linear_1_1)"/>
  <path d="M61 54L89 18" stroke="white" stroke-width="5" stroke-linecap="round"/>
  <circle cx="131" cy="43" r="12" fill="#10B981"/>
  <circle cx="131" cy="43" r="8.5" stroke="white" stroke-width="2"/>
  <circle cx="126.5" cy="38.5" r="1.6" fill="white"/>
  <circle cx="131" cy="38.5" r="1.6" fill="white"/>
  <circle cx="135.5" cy="38.5" r="1.6" fill="white"/>
  <circle cx="126.5" cy="43" r="1.6" fill="white"/>
  <circle cx="131" cy="43" r="1.6" fill="white"/>
  <circle cx="135.5" cy="43" r="1.6" fill="white"/>
  <circle cx="126.5" cy="47.5" r="1.6" fill="white"/>
  <circle cx="131" cy="47.5" r="1.6" fill="white"/>
  <circle cx="135.5" cy="47.5" r="1.6" fill="white"/>
  <text x="149" y="41" fill="#111111" font-family="Arial, Helvetica, sans-serif" font-size="20" font-weight="800">IDM</text>
  <text x="149" y="60" fill="#111111" font-family="Arial, Helvetica, sans-serif" font-size="19" font-weight="800">PAKISTAN</text>
  <defs>
    <linearGradient id="paint0_linear_1_1" x1="20" y1="36" x2="86" y2="36" gradientUnits="userSpaceOnUse">
      <stop stop-color="#2563EB"/>
      <stop offset="1" stop-color="#0891B2"/>
    </linearGradient>
    <linearGradient id="paint1_linear_1_1" x1="70" y1="36" x2="136" y2="36" gradientUnits="userSpaceOnUse">
      <stop stop-color="#0F9D8A"/>
      <stop offset="1" stop-color="#22C55E"/>
    </linearGradient>
  </defs>
</svg>
